<svg width="116" height="113" viewBox="0 0 116 113" fill="none" xmlns="http://www.w3.org/2000/svg">
<g id="Icon/music">
<path id="&#240;&#159;&#142;&#168; Icon &#208;&#161;olor" fill-rule="evenodd" clip-rule="evenodd" d="M75.1594 79.7233C71.2083 79.7233 67.9966 76.6039 67.9966 72.7665C67.9966 68.9291 71.2083 65.8097 75.1594 65.8097C78.6208 65.8097 81.5061 68.197 82.1782 71.363V71.3677C82.2694 71.82 82.3222 72.2862 82.3222 72.7665C82.3222 76.6039 79.1105 79.7233 75.1594 79.7233ZM32.0862 89.0206C28.1352 89.0206 24.9234 85.8966 24.9234 82.0592C24.9234 78.2264 28.1352 75.1024 32.0862 75.1024C35.5428 75.1024 38.4329 77.4897 39.105 80.6557V80.6697C39.2011 81.1173 39.2539 81.5836 39.2539 82.0592C39.2539 85.8966 36.0421 89.0206 32.0862 89.0206ZM91.6692 70.3325V19.0799C91.6692 17.6624 91.0115 16.3242 89.8737 15.4383C88.7359 14.5571 87.2429 14.2214 85.8315 14.5291L42.7585 23.8219C40.5597 24.2975 38.9994 26.1906 38.9994 28.3727V67.2644C36.8823 66.3319 34.5587 65.777 32.0862 65.777C22.8447 65.777 15.3218 73.0835 15.3218 82.0592C15.3218 91.0396 22.8447 98.3461 32.0862 98.3461C41.3326 98.3461 48.8555 91.0396 48.8555 82.0592C48.8555 81.2293 48.7259 80.4273 48.6011 79.6253V32.1169L82.0676 24.8897V57.967C79.9552 57.0344 77.6316 56.4842 75.1592 56.4842C65.9128 56.4842 58.3948 63.7861 58.3948 72.7665C58.3948 81.7468 65.9128 89.0487 75.1592 89.0487C84.4056 89.0487 91.9237 81.7468 91.9237 72.7665C91.9237 71.9318 91.7989 71.1345 91.6692 70.3325Z" fill="#223345"/>
<mask id="mask0_53_1608" style="mask-type:luminance" maskUnits="userSpaceOnUse" x="15" y="14" width="77" height="85">
<path id="&#240;&#159;&#142;&#168; Icon &#208;&#161;olor_2" fill-rule="evenodd" clip-rule="evenodd" d="M75.1594 79.7233C71.2083 79.7233 67.9966 76.6039 67.9966 72.7665C67.9966 68.9291 71.2083 65.8097 75.1594 65.8097C78.6208 65.8097 81.5061 68.197 82.1782 71.363V71.3677C82.2694 71.82 82.3222 72.2862 82.3222 72.7665C82.3222 76.6039 79.1105 79.7233 75.1594 79.7233ZM32.0862 89.0206C28.1352 89.0206 24.9234 85.8966 24.9234 82.0592C24.9234 78.2264 28.1352 75.1024 32.0862 75.1024C35.5428 75.1024 38.4329 77.4897 39.105 80.6557V80.6697C39.2011 81.1173 39.2539 81.5836 39.2539 82.0592C39.2539 85.8966 36.0421 89.0206 32.0862 89.0206ZM91.6692 70.3325V19.0799C91.6692 17.6624 91.0115 16.3242 89.8737 15.4383C88.7359 14.5571 87.2429 14.2214 85.8315 14.5291L42.7585 23.8219C40.5597 24.2975 38.9994 26.1906 38.9994 28.3727V67.2644C36.8823 66.3319 34.5587 65.777 32.0862 65.777C22.8447 65.777 15.3218 73.0835 15.3218 82.0592C15.3218 91.0396 22.8447 98.3461 32.0862 98.3461C41.3326 98.3461 48.8555 91.0396 48.8555 82.0592C48.8555 81.2293 48.7259 80.4273 48.6011 79.6253V32.1169L82.0676 24.8897V57.967C79.9552 57.0344 77.6316 56.4842 75.1592 56.4842C65.9128 56.4842 58.3948 63.7861 58.3948 72.7665C58.3948 81.7468 65.9128 89.0487 75.1592 89.0487C84.4056 89.0487 91.9237 81.7468 91.9237 72.7665C91.9237 71.9318 91.7989 71.1345 91.6692 70.3325Z" fill="white"/>
</mask>
<g mask="url(#mask0_53_1608)">
</g>
</g>
</svg>
